# This file uses centimeters as units for non-parametric coordinates.

mtllib mmm.mtl
g default
v -7.999779 6.281207 36.126399
v 6.309230 6.436242 36.126399
v -7.949584 7.164327 36.126399
v 6.174772 7.233180 36.126399
v -2.225340 8.553100 36.126399
v -2.398795 5.927340 36.126399
v 4.376489 7.783401 36.126399
v 4.817937 6.116825 36.126399
v 6.810777 7.024358 36.126399
v 4.334189 7.127514 36.126399
v -1.582369 7.440175 36.126399
v -8.462579 6.839228 36.126399
v 2.179197 8.300604 36.126399
v 1.920996 7.281776 36.126399
v 2.359597 5.978628 36.126399
v -5.624921 7.877223 36.126399
v -4.869213 7.147510 36.126399
v -6.547152 6.034746 36.126399
vt 0.000000 0.000000
vt 1.000000 0.000000
vt 0.000000 0.147541
vt 1.000000 0.147541
vt 0.378825 0.147541
vt 0.378825 0.000000
vt 0.704069 0.147541
vt 0.704069 0.000000
vt 1.000000 0.066489
vt 0.704069 0.066489
vt 0.378825 0.066489
vt 0.000000 0.066489
vt 0.543954 0.147541
vt 0.543954 0.066489
vt 0.543954 0.000000
vt 0.186410 0.147541
vt 0.186410 0.066489
vt 0.186410 0.000000
vn -0.000001 0.000000 1.000000
vn 0.000000 0.000000 1.000000
vn 0.000000 0.000000 1.000000
vn -0.000001 0.000000 1.000000
vn 0.000001 0.000000 1.000000
vn 0.000000 0.000000 1.000000
vn 0.000000 0.000000 1.000000
vn 0.000000 0.000000 1.000000
vn -0.000001 0.000000 1.000000
vn 0.000000 0.000000 1.000000
vn 0.000000 0.000000 1.000000
vn 0.000000 0.000000 1.000000
vn 0.000001 0.000000 1.000000
vn 0.000000 0.000000 1.000000
vn -0.000000 0.000000 1.000000
vn 0.000001 0.000000 1.000000
vn 0.000001 0.000000 1.000000
vn 0.000001 0.000000 1.000000
s 1
g mmm group1
usemtl surfaceShader1SG
f 8/8/1 2/2/2 9/9/3 10/10/4
f 18/18/5 6/6/6 11/11/7 17/17/8
f 15/15/9 8/8/1 10/10/4 14/14/10
f 10/10/4 9/9/3 4/4/11 7/7/12
f 14/14/10 10/10/4 7/7/12 13/13/13
f 17/17/8 11/11/7 5/5/14 16/16/15
f 11/11/7 14/14/10 13/13/13 5/5/14
f 6/6/6 15/15/9 14/14/10 11/11/7
f 12/12/16 17/17/8 16/16/15 3/3/17
f 1/1/18 18/18/5 17/17/8 12/12/16
