# This file uses centimeters as units for non-parametric coordinates.

mtllib star_head.mtl
g default
v 40.383518 78.166819 31.358586
v 0.243457 94.793371 31.358586
v -39.896599 78.166819 31.358586
v -56.523159 38.026758 31.358586
v -39.896599 -2.113298 31.358586
v 0.243457 -18.739855 31.358586
v 40.383514 -2.113298 31.358593
v 57.010075 38.026758 31.358586
v 0.243457 38.026758 31.358593
v 28.546148 106.355509 30.956909
v -28.059233 106.355509 30.956909
v -68.085293 66.329451 30.956909
v -68.085285 9.724068 30.956909
v -28.059233 -30.301985 30.956909
v 28.546150 -30.301992 30.956909
v 68.572201 9.724064 30.956909
v 68.572208 66.329458 30.956909
vt 0.610485 0.733265
vt 0.500000 0.687500
vt 0.389515 0.733265
vt 0.343750 0.843750
vt 0.389515 0.954235
vt 0.500000 1.000000
vt 0.610485 0.954235
vt 0.656250 0.843750
vt 0.500000 0.837500
vt 0.000000 0.000000
vt 1.000000 0.000000
vt 0.500000 1.000000
vt 0.000000 0.000000
vt 1.000000 0.000000
vt 0.500000 1.000000
vt 0.000000 0.000000
vt 1.000000 0.000000
vt 0.500000 1.000000
vt 0.000000 0.000000
vt 1.000000 0.000000
vt 0.500000 1.000000
vt 0.000000 0.000000
vt 1.000000 0.000000
vt 0.500000 1.000000
vt 0.000000 0.000000
vt 1.000000 0.000000
vt 0.500000 1.000000
vt 0.000000 0.000000
vt 1.000000 0.000000
vt 0.500000 1.000000
vt 0.000000 0.000000
vt 1.000000 0.000000
vt 0.500000 1.000000
vn 0.000000 0.000000 1.000000
vn 0.000000 0.000000 1.000000
vn -0.000000 0.000000 1.000000
vn -0.000000 0.000000 1.000000
vn -0.000000 0.000000 1.000000
vn -0.000000 -0.000000 1.000000
vn -0.000000 -0.000000 1.000000
vn 0.000000 0.000000 1.000000
vn 0.000000 0.000000 1.000000
vn 0.007144 0.017247 0.999826
vn 0.007144 0.017247 0.999826
vn 0.007144 0.017247 0.999826
vn -0.007144 0.017247 0.999826
vn -0.007144 0.017247 0.999826
vn -0.007144 0.017247 0.999826
vn -0.017247 0.007144 0.999826
vn -0.017247 0.007144 0.999826
vn -0.017247 0.007144 0.999826
vn -0.017247 -0.007144 0.999826
vn -0.017247 -0.007144 0.999826
vn -0.017247 -0.007144 0.999826
vn -0.007144 -0.017247 0.999826
vn -0.007144 -0.017247 0.999826
vn -0.007144 -0.017247 0.999826
vn 0.007144 -0.017247 0.999826
vn 0.007144 -0.017247 0.999826
vn 0.007144 -0.017247 0.999826
vn 0.017247 -0.007144 0.999826
vn 0.017247 -0.007144 0.999826
vn 0.017247 -0.007144 0.999826
vn 0.017247 0.007144 0.999826
vn 0.017247 0.007144 0.999826
vn 0.017247 0.007144 0.999826
s 1
g pCylinder1
usemtl initialShadingGroup
f 1/7/1 2/6/2 9/9/3
f 2/6/2 3/5/4 9/9/3
f 3/5/4 4/4/5 9/9/3
f 4/4/5 5/3/6 9/9/3
f 5/3/6 6/2/7 9/9/3
f 6/2/7 7/1/8 9/9/3
f 7/1/8 8/8/9 9/9/3
f 8/8/9 1/7/1 9/9/3
s off
f 1/10/10 10/12/11 2/11/12
f 2/13/13 11/15/14 3/14/15
f 3/16/16 12/18/17 4/17/18
f 4/19/19 13/21/20 5/20/21
f 5/22/22 14/24/23 6/23/24
f 6/25/25 15/27/26 7/26/27
f 7/28/28 16/30/29 8/29/30
f 8/31/31 17/33/32 1/32/33
